<?xml version="1.0" standalone="no"?>
<!DOCTYPE svg PUBLIC "-//W3C//DTD SVG 20010904//EN"
 "http://www.w3.org/TR/2001/REC-SVG-20010904/DTD/svg10.dtd">
<svg version="1.0" xmlns="http://www.w3.org/2000/svg"
 width="305.000000pt" height="305.000000pt" viewBox="0 0 305.000000 305.000000"
 preserveAspectRatio="xMidYMid meet">
<metadata>
Created by potrace 1.11, written by Peter Selinger 2001-2013
</metadata>
<g transform="translate(0.000000,305.000000) scale(0.100000,-0.100000)"
fill="#000000" stroke="none">
<path d="M1408 2528 c-117 -129 -167 -188 -255 -308 -298 -403 -532 -900 -648
-1379 -49 -199 -48 -194 -33 -188 97 41 412 107 507 107 l38 0 7 163 c13 304
56 760 82 861 33 132 119 242 232 294 80 38 213 43 305 13 113 -38 208 -145
263 -295 50 -138 75 -339 96 -777 l12 -256 96 -6 c109 -7 246 -33 398 -75 71
-20 102 -25 102 -17 0 7 -18 75 -39 151 -163 571 -393 1045 -714 1468 -112
147 -304 346 -334 346 -14 0 -53 -35 -115 -102z"/>
<path d="M1750 1551 c-47 -26 -103 -59 -124 -73 l-39 -27 25 -10 c100 -38 193
-13 222 60 17 41 22 100 9 98 -5 0 -46 -22 -93 -48z"/>
<path d="M1174 1539 c16 -101 61 -134 169 -126 79 5 103 20 72 44 -20 15 -233
123 -243 123 -2 0 -2 -18 2 -41z"/>
</g>
</svg>
